<svg width="60" height="60" viewBox="0 0 60 60" fill="none" xmlns="http://www.w3.org/2000/svg">
  <!-- Background circle -->
  <circle cx="30" cy="30" r="30" fill="#1e3a8a"/>
  
  <!-- Crown/King symbol -->
  <path d="M20 25 L25 20 L30 25 L35 20 L40 25 L40 30 L20 30 Z" fill="#f97316"/>
  <rect x="22" y="30" width="16" height="2" fill="#f97316"/>
  
  <!-- Open book -->
  <path d="M15 35 L25 35 L25 45 L20 50 L15 45 Z" fill="#ffffff"/>
  <path d="M25 35 L35 35 L35 45 L30 50 L25 45 Z" fill="#fef3c7"/>
  
  <!-- Tree symbol -->
  <path d="M45 40 L45 50 L43 50 L47 50 Z" fill="#10b981"/>
  <path d="M45 40 Q40 35 40 40 Q45 35 50 40 Q50 35 45 40" fill="#10b981"/>
  
  <!-- KSJ text -->
  <text x="30" y="18" font-family="Arial, sans-serif" font-size="8" font-weight="bold" text-anchor="middle" fill="#ffffff">KSJ</text>
</svg>

